<?xml version="1.0" encoding="UTF-8"?><svg id="Capa_1" xmlns="http://www.w3.org/2000/svg" viewBox="0 0 2793.68 1896.12"><defs><style>.cls-1{fill:none;}.cls-2{fill:#683c11;}.cls-3{fill:#7d4e24;}.cls-4{fill:#432918;}</style></defs><path class="cls-1" d="m2058.24,799.6c4.49-117.6,12.44-258.06,21.58-391.98-.9-1.24-1.78-2.48-2.69-3.71-8.72,133.7-16.43,274.48-21.23,396.07.75-.17,1.53-.3,2.33-.37Z"/><path class="cls-1" d="m2348.11,793.02c29.19-29.86,52.96-64.15,47.91-96.22-2.57-16.31-13.53-25.33-26.35-23.31-9.93,1.56-20.85,8.28-32.3,19.02-22.54,21.14-47.11,57.96-70.15,101.91,3.26,20.11,5.93,40.37,7.9,60.78,15.44-13.21,45.67-35.6,72.98-62.17Z"/><path class="cls-1" d="m2054.85,1062.55c6.16,39.16,33.45,75.89,101.87,74.9-65.76-.33-92.22-36.44-98.27-74.9-1.45-9.2-2.49-22.19-3.16-38.43-.71,6.8-1.53,13.56-2.43,20.3.55,7.08,1.21,13.18,1.99,18.13Z"/><path class="cls-1" d="m2047.67,818.38c.23-.73.48-1.48.71-2.2,4.96-128.32,13.26-279.04,22.61-420.57-7.9-10.54-16.02-20.94-24.41-31.17l-32.81,330.4c14.78,39.68,26.2,80.97,33.89,123.55Z"/><path class="cls-1" d="m1668.16,751.55c-11.02,1.74-21.64,8.41-31.55,18.87,8.87-8.38,18.25-13.74,27.95-15.27,36.11-5.68,82.02-2.16,131.59,24.65-48.22,149.08-110.38,264.73-155.87,311.66,45.76-44.4,109.96-162.2,159.46-315.26-49.57-26.81-95.49-30.33-131.59-24.65Z"/><path class="cls-1" d="m1099.93,1653.83c-78.34,12.32-119.99-24.33-128.52-73.6-1.51-.86-3.01-1.74-4.51-2.61.18,1.54.39,3.07.62,4.58,7.88,50.09,49.61,87.69,128.81,75.22,13.06-2.06,25.27-5.15,36.7-9.17-1.3-.37-2.58-.77-3.88-1.14-9.25,2.84-18.97,5.1-29.23,6.72Z"/><path class="cls-1" d="m1190.34,1253.51c-7.2,145.96-21.04,276.77-60.75,319.96,42.47-39.06,56.92-173.28,64.34-323.55,2.44-51.62,5.31-107.81,8.49-165.41-1.28,3.32-2.63,6.68-3.95,10.02-3.03,55.35-5.79,109.29-8.14,158.99Z"/><path class="cls-1" d="m2162.42,911.4l6.37,2.58c.8-3.01,1.63-6.05,2.48-9.1,14.17-51.03,35.02-106.81,61.18-158.55-10.73-48.36-25.36-95.58-43.65-141.31-14.14,117.13-29.31,241.61-26.36,306.38Z"/><path class="cls-1" d="m942.3,913.59c-.33,1.03-.68,2.04-1.01,3.07.34.18.67.34,1.01.52-47.73,147.58-109.13,262.38-154.49,310.21,45.88-42.69,111.38-161.87,161.67-317.39-49.58-26.82-95.48-30.33-131.59-24.65-5.39.85-10.67,2.92-15.83,5.98,2.85-1.12,5.73-1.93,8.64-2.38,36.11-5.68,82.02-2.16,131.59,24.65Z"/><path class="cls-1" d="m728.63,1364.9c-64.06,10.08-122.2-55.97-130.63-109.55-9.31-59.15-9.21-144.52,10.49-225.22-.27-2.42-.58-4.82-.83-7.25-22.45,83.81-22.97,174.25-13.25,236.06,8.43,53.58,66.57,119.63,130.63,109.55,3.62-.57,7.29-1.48,11-2.67-.5-.71-.99-1.44-1.49-2.15-1.98.49-3.96.92-5.91,1.23Z"/><path class="cls-1" d="m789.43,901.08c-1.67,1.6-3.33,3.27-4.96,5.09,3.3-2.94,6.67-5.45,10.09-7.51-1.72.69-3.44,1.5-5.13,2.42Z"/><path class="cls-1" d="m725.9,1195.84c5.13,32.61,15.24,51.32,33.87,48.38,8.04-1.26,17.52-7.04,28.04-16.83,45.35-47.83,106.75-162.63,154.49-310.21-.34-.18-.67-.34-1.01-.52-50.16,154.01-115.09,271.91-160.66,314.32,45.35-47.83,106.75-162.63,154.49-310.21-49.58-26.82-95.48-30.33-131.59-24.65-3.02.48-6,1.35-8.95,2.54-3.43,2.06-6.8,4.57-10.09,7.51-45.59,50.74-75.42,182.56-58.57,289.66Z"/><path class="cls-1" d="m1657.37,762.33c-8.38,1.32-16.51,5.5-24.29,12-44.65,52.06-73.57,181.93-56.92,287.72,5.13,32.61,15.24,51.32,33.87,48.38,7.61-1.2,16.54-6.5,26.4-15.36,45.15-49.02,105.47-162.6,152.53-308.08-49.57-26.81-95.49-30.33-131.59-24.65Z"/><path class="cls-4" d="m441.78,724.99c-7.07,93.45-15.32,224.4-21.69,368.88,1.67,10.6,3.5,21.16,5.54,31.66,6.39-155.83,15.2-298.78,22.77-400.15-2.21-.13-4.41-.25-6.62-.39Z"/><path class="cls-4" d="m411.4,1358.8c-.96,20.83-6.18,35.71-14.92,46.35,13.08-10.77,20.9-27.52,22.11-53.54.91-44.83,2.14-89.71,3.61-134.02-2.15-7.28-4.21-14.59-6.18-21.93-1.92,53.72-3.51,108.46-4.62,163.14Z"/><path class="cls-4" d="m949.75,1022.77c.41-1.45.8-2.9,1.21-4.35l-2.39-.76c-34.91,128.45-95.46,247.07-155.59,309.4,57.82-55.63,116.99-165.18,154.26-287.15,1.05-6.01,1.99-11.75,2.76-17.07l-.25-.08Z"/><path class="cls-4" d="m787.81,1227.39c-10.52,9.79-20,15.56-28.04,16.83-18.63,2.93-28.74-15.77-33.87-48.38-16.85-107.1,12.98-238.92,58.57-289.66-49.57,44.25-83.49,184.22-65.76,296.85,5.13,32.61,15.24,51.32,33.87,48.38,9.82-1.55,21.83-9.89,35.23-24.02Z"/><path class="cls-4" d="m1194.88,1098.12c.12-2.14.24-4.28.35-6.43-28.11,73.04-65.74,152.66-108.01,197.16,39.45-37.26,75.19-106.41,103.39-174.71.11-2,.22-3.99.32-6,1.35-3.36,2.63-6.68,3.95-10.02Z"/><path d="m1303.47,459.21c-13.83,2.17-25.87,9.95-35.73,21.17,8.34-7.31,17.91-12.31,28.54-13.98,37.27-5.86,64.85,10.09,78.82,30.57,7.38,13.54-20.77,106.55-43.55,136.1,23.43-15.57,58.92-128.28,50.74-143.29-13.97-20.48-41.54-36.43-78.82-30.57Z"/><path class="cls-4" d="m1937.48,1155.06c35.47-33.5,67.94-92.79,94.63-154.06.28-3.8.5-7.62.73-11.44-26.34,63.46-59.14,127.37-95.36,165.5Z"/><path class="cls-4" d="m1800.01,888.99c.41-1.45.8-2.9,1.21-4.36l-2.39-.76c-34.91,128.46-95.46,247.07-155.59,309.4,57.82-55.63,116.99-165.16,154.26-287.13,1.05-6.02,1.99-11.76,2.76-17.08l-.25-.08Z"/><path class="cls-4" d="m1636.44,1095.07c-9.86,8.87-18.79,14.17-26.4,15.36-18.64,2.93-28.74-15.77-33.87-48.38-16.65-105.79,12.28-235.66,56.92-287.72-.65.54-1.3,1.07-1.94,1.65.51-.56,1.02-1.07,1.53-1.61-48.43,46.25-81.17,183.82-63.7,294.87,5.13,32.61,15.24,51.32,33.87,48.38,9.21-1.45,20.36-8.94,32.75-21.51-.37.35-.75.74-1.12,1.08.65-.68,1.31-1.42,1.96-2.13Z"/><path class="cls-4" d="m2375.59,855.18c12.06,38.69,69.01,150.28,112.1,143.5,9.12-1.43,19.51-8.57,30.77-20.73-8.51,7.78-16.44,12.42-23.58,13.54-43.09,6.78-100.04-104.81-112.1-143.5.38-1.28,1.22-2.7,2.45-4.24-5.28,4.58-8.74,8.39-9.63,11.43Z"/><path class="cls-4" d="m2275.23,856.33c18.24-14.88,47.57-37.41,72.89-63.31-27.32,26.57-57.54,48.97-72.98,62.17.04.38.06.76.1,1.14Z"/><path class="cls-4" d="m2524.72,634.77c8.94,56.83-18.61,102.18-52.39,137.07,36.93-35.78,69.15-83.44,59.58-144.26-10.26-65.23-59.9-84.87-100.67-78.45-37.4,5.88-72.51,28.58-104.29,61.49,29.86-29,62.5-48.85,97.11-54.3,40.77-6.42,90.41,13.23,100.67,78.45Z"/><path class="cls-4" d="m2683.8,727.91c-21.25,82.25-65.29,232.47-144.87,315.52,84.12-81.29,130.18-238.02,152.05-322.71-2.75-17.47-25.18-23.5-36.83-21.66-.75,2.32-1.51,4.58-2.26,6.88,12.13.2,29.5,6.73,31.9,21.97Z"/><path class="cls-4" d="m686.06,551.27c8.62-7.59,14.35-15.7,17.58-23.86-1.7.19-3.42.44-5.16.82-1.83,7.75-5.88,15.56-12.42,23.04Z"/><path class="cls-2" d="m80.79,765.93c24.26-19.88,65.8-32.04,111.21-39.19,37.27-5.87,82.45-7.01,128.18-4.65l-13,235.99c-6.5,118-25.43,430.13-26.85,459,15.01,11.96,38.79,18.96,64.41,14.92,20.72-3.26,37.19-9.93,48.14-23.25-10.49,8.64-24.36,13.45-40.95,16.06-25.62,4.04-49.4-2.96-64.41-14.92,1.42-28.87,20.35-341,26.85-459l13-235.99c-45.73-2.36-90.91-1.22-128.18,4.65-47.84,7.53-91.41,20.62-114.97,42.44-.66.7-1.37,1.38-1.99,2.1-.51.6-.95,1.23-1.44,1.84Z"/><path class="cls-4" d="m416.02,1195.66c-21.43-79.74-32.54-162.81-32.54-247.6,0-119.2,21.86-235.03,63.67-342.94-21.66.62-43.71,1.08-65.75,1.65-71.54.51-141.73,2.01-198.8,10.99-66.42,10.45-112.05,31.7-141.91,59.79C2.36,718.63-5.54,772.59,3.26,828.51c16.31,103.67,96.9,153.05,162.13,142.79,14.82-2.33,26.09-7.62,34.58-14.72,16.19-19.37,17.8-47.09,14.49-68.1-60.57,9.53-140.87-7.67-151.5-75.23-3.05-19.37,3.98-35.07,17.81-47.81,1.1-1.17,2.24-2.33,3.46-3.45,22.51-23.99,68.16-38.1,118.57-46.03,37.27-5.87,82.45-7.01,128.18-4.65l-13,235.99c-6.5,118-25.43,430.13-26.85,459,15.01,11.96,38.79,18.96,64.41,14.92,16.59-2.61,30.46-7.42,40.95-16.06,8.74-10.64,13.96-25.52,14.92-46.35,1.11-54.68,2.7-109.43,4.62-163.14Z"/><path class="cls-4" d="m742.52,565.57c-26.58,40.79-49.02,84.49-66.77,130.51,12.96-6.69,23.98-14.51,33.22-23.1,30.7-33.18,38.23-75.34,33.55-107.41Z"/><path class="cls-2" d="m725.03,1368.5c-64.06,10.08-122.2-55.97-130.63-109.55-9.73-61.81-9.2-152.25,13.25-236.06-.45-4.42-.82-8.85-1.2-13.29-28.28,89.26-29.76,189.66-19.24,256.54,8.43,53.58,66.57,119.63,130.63,109.55,6.71-1.05,13.59-3.24,20.58-6.42-.81-1.14-1.59-2.3-2.39-3.44-3.71,1.2-7.38,2.11-11,2.67Z"/><path class="cls-2" d="m629.05,953.05c.02,2.64.05,5.28.1,7.92,14.13-32.16,32.46-61.7,55.85-86.14-22.97,22.01-41.36,48.79-55.95,78.22Z"/><path class="cls-2" d="m759.02,1354.82c.38.53.77,1.04,1.15,1.57,9.65-6.97,19.42-15.59,29.21-25.74-10.21,9.82-20.36,17.93-30.36,24.17Z"/><path class="cls-2" d="m810.71,892.53c35.86-5.64,81.39-2.18,130.58,24.13.34-1.03.68-2.04,1.01-3.07-49.58-26.82-95.48-30.33-131.59-24.65-2.91.46-5.79,1.26-8.64,2.38-4.31,2.56-8.52,5.83-12.63,9.76,1.7-.92,3.41-1.73,5.13-2.42,5.25-3.16,10.64-5.27,16.14-6.13Z"/><path class="cls-2" d="m810.71,892.53c-5.49.87-10.88,2.97-16.14,6.13,2.95-1.19,5.93-2.06,8.95-2.54,36.11-5.68,82.02-2.16,131.59,24.65-47.73,147.58-109.13,262.38-154.49,310.21,45.57-42.41,110.5-160.31,160.66-314.32-49.19-26.32-94.72-29.77-130.58-24.13Z"/><path class="cls-4" d="m1203.62,948.06c.29-4.67.58-9.33.87-13.98-.55.18-1.1.35-1.61.59-25.91,85.77-76.55,211-122.66,260.86,44.41-40.62,94.58-158.58,123.4-247.47Z"/><path class="cls-2" d="m947.23,1034.38c-12.21,71.29-41.12,185.52-34.7,227.06,3.67,23.74,58.08,74.62,115.15,65.47,19.24-3.08,38.01-15.91,55.95-35.15-15.74,15.15-32.08,25.15-48.76,27.83-57.08,9.15-111.48-41.73-115.15-65.47-6.96-45.11,27.74-175.98,37.46-244.46l-2.64-.85c-.4,1.48-.8,2.96-1.21,4.44-1.96,7.08-4,14.13-6.11,21.14Z"/><path class="cls-4" d="m950.08,1017.8c-.57,2.03-1.13,4.07-1.71,6.1l.35.11c-1.09,7.45-2.42,15.48-3.91,23.9,2.97-9.63,5.87-19.31,8.64-29.04l-3.38-1.06Z"/><path class="cls-4" d="m957.16,803.97c-2.33.5-4.82,1.17-7.26,2.21l.21,14.65c2.47,1.02,4.92,2.07,7.34,3.17l-.28-20.03Z"/><path class="cls-4" d="m598,1255.35c8.43,53.58,66.57,119.63,130.63,109.55,1.96-.31,3.93-.74,5.91-1.23-67.54-96.72-112.18-210.53-126.06-333.54-19.7,80.7-19.79,166.07-10.49,225.22Z"/><path class="cls-4" d="m792.97,1327.06c60.13-62.33,120.68-180.95,155.59-309.4l2.39.76c.4-1.45.81-2.9,1.2-4.35l2.39.76c.4-1.45.81-2.9,1.2-4.35l5.03,1.59c-9.72,67.18-44.43,195.59-37.46,239.85,3.67,23.29,58.08,73.22,115.15,64.24,16.68-2.63,33.01-12.44,48.76-27.3,42.27-44.5,79.9-124.12,108.01-197.16,2.62-47.5,5.44-95.95,8.38-143.63-28.82,88.9-78.99,206.85-123.4,247.47-11.16,12.07-22.05,19.74-32.27,21.35-16.31,2.56,24.28-240.16,36.84-342.4.43-4.84.87-9.69.13-14.34-6.97-44.27-80.45-63.74-122.38-57.14-1.59.25-3.43.56-5.37.97l.28,20.03c-2.42-1.1-4.87-2.14-7.34-3.17l.15,10.35c-41.13-18.6-88.93-26.58-143.68-17.97-48.51,7.63-87.29,28.61-117.98,58.02-25.4,26.54-44.81,59.12-59.38,94.54,3.59,144.26,50.87,277.85,129.09,388.03,11.37-6.5,22.99-15.51,34.67-26.75Zm-74.26-124.03c-17.73-112.63,16.19-252.6,65.76-296.85,1.63-1.82,3.29-3.49,4.96-5.09-4.14,2.25-8.19,5.15-12.15,8.69,7.84-8.73,16.16-15.06,24.77-18.45,5.16-3.06,10.45-5.13,15.83-5.98,36.11-5.68,82.02-2.16,131.59,24.65-50.3,155.52-115.79,274.7-161.67,317.39-13.4,14.13-25.4,22.47-35.23,24.02-18.63,2.93-28.74-15.77-33.87-48.38Z"/><path class="cls-4" d="m777.29,909.77c3.96-3.53,8.01-6.43,12.15-8.69,4.1-3.94,8.32-7.21,12.63-9.76-8.62,3.39-16.93,9.72-24.77,18.45Z"/><path class="cls-4" d="m950.95,1018.42l2.39.76c.41-1.45.8-2.9,1.21-4.35l-2.39-.76c-.39,1.45-.8,2.9-1.2,4.35Z"/><path class="cls-2" d="m1096.33,1657.42c-79.21,12.46-120.93-25.14-128.81-75.22-.24-1.5-.44-3.03-.62-4.58-2.66-1.55-5.31-3.12-7.95-4.71.07,5.66.56,11.21,1.38,16.47,7.88,50.09,49.61,87.69,128.81,75.22,18.43-2.9,35.15-7.88,50.38-14.6-2.16-.59-4.34-1.15-6.49-1.76-11.43,4.02-23.64,7.11-36.7,9.17Z"/><path class="cls-2" d="m1199.95,1607.29c-9.57,9.08-20.04,17.18-31.49,24.18.92.22,1.84.46,2.76.68,10.43-7.34,19.98-15.68,28.73-24.85Z"/><path class="cls-2" d="m962.57,1545.67c1.61,1,3.21,2.03,4.83,3.02,2.08-12.45,6.88-24.7,15.84-35.13-10.65,9.12-17.11,20.32-20.68,32.12Z"/><path class="cls-2" d="m1129.59,1573.47c39.71-43.19,53.54-174,60.75-319.96,2.35-49.7,5.1-103.64,8.14-158.99-1.32,3.34-2.59,6.67-3.95,10.03-1.29,3.19-2.6,6.39-3.92,9.59-2.77,50.98-5.29,100.59-7.46,146.56-7.1,143.8-20.61,272.97-58.98,318.06.71-.6,1.4-1.29,2.09-1.94.5-.55,1.01-1.07,1.5-1.65.62-.52,1.22-1.14,1.83-1.7Z"/><path class="cls-4" d="m1194.88,1098.12c-1.31,3.34-2.59,6.67-3.95,10.02-.11,2.01-.22,3.99-.32,6,1.32-3.2,2.63-6.4,3.92-9.59.12-2.14.24-4.29.35-6.43Z"/><path d="m1305.88,641.45c-20.97,3.3-40.88-1.92-54.67-21.24-6.31-9.75-9.3-21.21-11.32-34.03-5.74-36.47,5.3-80.17,27.84-105.81-27.32,23.92-41.35,72.85-35.03,113,2.01,12.81,5.01,24.27,11.32,34.03,13.78,19.32,33.7,24.53,54.67,21.24,9.32-1.47,17.29-3.92,23.91-7.34,2.81-1.3,5.82-4.19,8.94-8.23-.59.39-1.18.77-1.75,1.04-6.63,3.43-14.59,5.88-23.91,7.34Z"/><path class="cls-4" d="m1210.07,927.48c.51-.24,1.06-.42,1.61-.59,3.99-63.75,8.19-125.74,12.42-181.8-2.22.34-4.46.71-6.73,1.1-4.38,57.64-8.74,121.84-12.87,187.89,1.18-.38,2.44-.61,3.78-.7.61-1.98,1.22-3.95,1.8-5.89Z"/><path class="cls-4" d="m1198.83,1088.09c-.12,2.15-.23,4.28-.35,6.42,1.31-3.34,2.67-6.7,3.95-10.02.26-4.66.52-9.32.78-14-2.56,6.97-5.22,14.05-7.96,21.19-.12,2.15-.24,4.29-.35,6.43,1.32-3.34,2.67-6.7,3.95-10.02Z"/><path class="cls-4" d="m1194.88,1098.12c-.12,2.14-.24,4.29-.35,6.43,1.35-3.36,2.63-6.68,3.95-10.03.12-2.14.23-4.28.35-6.42-1.28,3.32-2.63,6.68-3.95,10.02Z"/><path class="cls-4" d="m1211.67,926.89c-.55.18-1.1.35-1.61.59-.59,1.94-1.19,3.91-1.8,5.89.97-.07,1.98-.06,3.01.02.14-2.17.27-4.34.4-6.51Z"/><path class="cls-4" d="m1247.87,947.79c-8.22,29.53-24.09,81.21-45.45,136.71-3.17,57.6-6.05,113.79-8.49,165.41-7.42,150.28-21.87,284.49-64.34,323.55-1.09,1.19-2.2,2.3-3.33,3.35-7.48,8.23-15.87,13.39-25.33,14.88-32.61,5.13-57.05-36.38-66.15-101.8-21.4,3.37-36.91,10.61-47.95,20.06-10.23,11.91-15.05,26.19-16.57,40.43,60.21,36.25,126.27,63.71,196.4,80.64,13.57-7.67,25.83-16.85,36.87-27.34,75.26-78.96,91.29-220.43,102.49-331.93,13.25-135.77,34.32-343.2,43.14-438.88.68-10.85.01-22.69-1.27-30.84-8.17-51.89-55.4-67.41-123.81-56.95-4.23,56.06-8.43,118.05-12.42,181.8,11.49-3.7,31.7,6.8,36.2,20.9Z"/><path class="cls-4" d="m1099.93,1653.83c10.26-1.61,19.98-3.88,29.23-6.72-55.59-16.12-108.47-38.7-157.75-66.88,8.53,49.27,50.18,85.92,128.52,73.6Z"/><path d="m1127.76,1575.16c-.49.58-1,1.1-1.5,1.65,1.13-1.05,2.24-2.16,3.33-3.35-.61.56-1.21,1.18-1.83,1.7Z"/><path class="cls-4" d="m1375.1,496.97c-13.97-20.48-41.54-36.43-78.82-30.57-10.63,1.67-20.2,6.68-28.54,13.98-22.54,25.64-33.58,69.35-27.84,105.81,2.01,12.81,5.01,24.27,11.32,34.03,13.78,19.32,33.7,24.53,54.67,21.24,9.32-1.47,17.29-3.92,23.91-7.34.57-.26,1.16-.65,1.75-1.04,22.78-29.55,50.93-122.56,43.55-136.1Z"/><path class="cls-4" d="m1240.69,954.98c-7.17,25.73-20.14,68.29-37.49,115.52-.26,4.68-.52,9.34-.78,14,21.36-55.5,37.23-107.18,45.45-136.71-4.5-14.1-24.72-24.6-36.2-20.9-.14,2.16-.27,4.34-.4,6.51,11.37.83,25.72,9.98,29.42,21.58Z"/><path class="cls-4" d="m1208.26,933.38c-1.34.09-2.6.32-3.78.7-.29,4.65-.58,9.32-.87,13.98,1.62-4.99,3.17-9.89,4.65-14.68Z"/><path class="cls-4" d="m1211.27,933.39c-1.03-.08-2.03-.09-3.01-.02-1.48,4.79-3.03,9.69-4.65,14.68-2.95,47.68-5.77,96.13-8.38,143.63,2.75-7.14,5.4-14.21,7.96-21.19,2.53-45.49,5.25-91.69,8.07-137.11Z"/><path class="cls-4" d="m1211.27,933.39c-2.83,45.42-5.54,91.62-8.07,137.11,17.35-47.24,30.32-89.79,37.49-115.52-3.7-11.6-18.05-20.75-29.42-21.58Z"/><path class="cls-4" d="m1807.42,670.18c-2.33.5-4.81,1.17-7.26,2.21l.21,14.66c2.47,1.02,4.92,2.07,7.34,3.17l-.28-20.03Z"/><path class="cls-4" d="m2048.38,816.18c-.23.73-.48,1.47-.71,2.2.18.98.34,1.96.51,2.93.06-1.71.13-3.42.2-5.13Z"/><path class="cls-4" d="m2030.74,879.41c-.3-3.09-.64-6.17-.98-9.25-27.36,73.92-64.6,154.07-99.28,191.58,34.12-31.21,71.64-108.07,100.26-182.33Z"/><path d="m1444.67,1125.16c-16.19-102.92-4.05-285.23,90.59-384.12-101.21,97-114.38,285.84-97.78,391.31,8.43,53.58,66.57,119.63,130.63,109.55,22.6-3.56,47.03-19.63,71.54-45.04-22.08,21.24-43.96,34.64-64.35,37.85-64.06,10.07-122.2-55.98-130.63-109.55Z"/><path class="cls-2" d="m1797.49,906.14c-12.21,69.94-41.11,182.01-34.7,222.76,3.67,23.3,58.08,73.22,115.15,64.25,19.23-3.03,38.01-15.61,55.94-34.49-15.74,14.87-32.07,24.68-48.75,27.31-57.08,8.98-111.48-40.95-115.15-64.25-6.96-44.26,27.74-172.67,37.46-239.84l-2.63-.84c-.4,1.45-.8,2.91-1.21,4.36-1.96,6.95-4.01,13.87-6.11,20.75Z"/><path class="cls-4" d="m1801.21,884.63c-.4,1.45-.8,2.91-1.21,4.36l.25.08c-.77,5.32-1.71,11.06-2.76,17.08,2.1-6.88,4.15-13.8,6.11-20.75l-2.39-.76Z"/><path class="cls-2" d="m1664.56,755.14c-9.7,1.53-19.09,6.89-27.95,15.27-.62.66-1.26,1.28-1.87,1.97,8.36-7.46,17.16-12.22,26.23-13.65,36.11-5.68,82.02-2.16,131.59,24.65-47.74,147.58-109.13,262.39-154.49,310.21.73-.68,1.48-1.43,2.22-2.15,45.48-46.93,107.65-162.58,155.87-311.66-49.57-26.81-95.49-30.33-131.59-24.65Z"/><path class="cls-2" d="m1657.37,762.33c36.11-5.68,82.02-2.16,131.59,24.65-47.06,145.48-107.38,259.06-152.53,308.08.55-.49,1.08-.95,1.64-1.46,45.35-47.83,106.75-162.63,154.49-310.21-49.57-26.81-95.49-30.33-131.59-24.65-9.07,1.43-17.88,6.18-26.23,13.65-.56.62-1.1,1.31-1.65,1.95,7.77-6.5,15.91-10.68,24.29-12Z"/><path d="m1636.44,1095.07c-.65.71-1.31,1.45-1.96,2.13.37-.34.75-.73,1.12-1.08.82-.84,1.64-1.63,2.47-2.51-.55.51-1.09.97-1.64,1.46Z"/><path d="m1633.09,774.33c.55-.64,1.09-1.33,1.65-1.95-.69.62-1.37,1.33-2.06,1.98-.51.54-1.02,1.05-1.53,1.61.64-.57,1.3-1.1,1.94-1.65Z"/><path class="cls-4" d="m1930.48,1061.74c-11.16,12.07-22.06,19.74-32.27,21.35-16.31,2.57,24.28-240.16,36.84-342.4.43-4.84.87-9.68.13-14.34-6.97-44.26-80.45-63.73-122.38-57.13-1.59.25-3.43.55-5.37.97l.28,20.03c-2.42-1.1-4.87-2.14-7.34-3.17l.15,10.35c-41.12-18.6-88.93-26.59-143.68-17.98-48.51,7.63-87.29,28.61-117.98,58.03-94.65,98.89-106.79,281.2-90.59,384.12,8.43,53.58,66.57,119.63,130.63,109.55,20.39-3.21,42.27-16.61,64.35-37.85,60.13-62.33,120.68-180.95,155.59-309.4l2.39.76c.4-1.45.81-2.9,1.21-4.36l2.39.76c.4-1.45.81-2.9,1.21-4.36l5.02,1.6c-9.72,67.17-44.43,195.58-37.46,239.84,3.67,23.3,58.08,73.22,115.15,64.25,16.68-2.63,33.01-12.44,48.75-27.31,36.22-38.13,69.02-102.04,95.36-165.5.81-13.74,1.26-27.57,1.26-41.5,0-23.16-1.16-46.06-3.36-68.65-28.63,74.26-66.14,151.12-100.26,182.33Zm-290.18,29.72c-1.58,1.63-3.15,3.19-4.69,4.66-12.39,12.56-23.54,20.06-32.75,21.51-18.64,2.93-28.74-15.77-33.87-48.38-17.47-111.05,15.26-248.62,63.7-294.87,1.3-1.38,2.61-2.7,3.94-3.95,9.91-10.45,20.52-17.13,31.55-18.87,36.11-5.68,82.02-2.16,131.59,24.65-49.5,153.05-113.7,270.85-159.46,315.26Z"/><path class="cls-4" d="m1801.21,884.63l2.39.76c.41-1.45.8-2.9,1.21-4.36l-2.39-.76c-.39,1.45-.8,2.9-1.21,4.36Z"/><path d="m1635.6,1096.12c1.54-1.47,3.11-3.02,4.69-4.66-.74.72-1.49,1.47-2.22,2.15-.84.88-1.65,1.67-2.47,2.51Z"/><path d="m1636.61,770.42c-1.32,1.25-2.64,2.57-3.94,3.95.69-.66,1.37-1.36,2.06-1.98.62-.69,1.25-1.31,1.87-1.97Z"/><path class="cls-2" d="m2279.51,955.43c33.59,68.64,94.29,158.5,154.99,148.95,38.66-6.08,72.07-27.33,100.84-57.35-27.11,26.2-58.16,44.58-93.65,50.16-65.38,10.29-130.77-94.77-162.28-164.41.08,5.09.19,10.18.19,15.28,0,2.46-.07,4.91-.09,7.37Z"/><path class="cls-4" d="m2175.98,906.79c13.11-49.46,32.73-103.99,57.55-155.31-.37-1.72-.71-3.44-1.09-5.15-26.16,51.74-47.01,107.52-61.18,158.55l4.71,1.91Z"/><path class="cls-4" d="m2326.95,610.61c-28.24,27.42-53.98,63.05-76.57,102.43.32,1.28.68,2.54.99,3.82,22.15-40.33,47.57-77.26,75.58-106.25Z"/><path d="m2385.22,843.75c17.48-15.16,55.09-38.84,87.11-71.91-36.02,34.9-76.5,58.48-87.11,71.91Z"/><path class="cls-4" d="m2396.03,696.8c5.05,32.07-18.72,66.36-47.91,96.22,32.35-31.46,60.56-68.73,55.1-103.41-2.57-16.31-13.53-25.33-26.35-23.31-11.99,1.89-25.43,11.27-39.49,26.21,11.45-10.74,22.38-17.46,32.3-19.02,12.81-2.01,23.78,7.01,26.35,23.31Z"/><path class="cls-2" d="m2084.29,298.93c-2.22.34-4.46.69-6.72,1.07-1.36,18.97-2.71,38.29-4.04,57.82,2.05,2.56,4.13,5.1,6.15,7.68,1.52-22.51,3.06-44.74,4.61-66.57Z"/><path class="cls-2" d="m2051.01,807.81c.72-2.34,1.44-4.65,2.13-6.94.86-.41,1.79-.69,2.77-.91,4.8-121.59,12.51-262.37,21.23-396.07-2.03-2.77-4.08-5.54-6.15-8.3-9.35,141.53-17.65,292.26-22.61,420.57.9-2.82,1.78-5.61,2.63-8.36Z"/><path class="cls-4" d="m2049.31,828.06c.36-1.06.73-2.13,1.08-3.18.2-5.63.41-11.31.63-17.06-.85,2.75-1.73,5.54-2.63,8.36-.07,1.72-.13,3.43-.2,5.13.39,2.24.75,4.5,1.12,6.75Z"/><path class="cls-4" d="m2050.38,824.87c-.35,1.05-.72,2.12-1.08,3.18.27,1.61.54,3.21.8,4.82.09-2.67.18-5.3.28-8Z"/><path class="cls-4" d="m2651.9,705.94c-1.77-.03-3.44.07-4.92.31-43.3,133.61-90.85,231.05-128.52,271.7,38.05-34.78,87.94-133.39,133.44-272.01Z"/><path class="cls-2" d="m2054.85,1062.55c-.78-4.96-1.44-11.06-1.99-18.13-1.31,9.83-2.8,19.6-4.5,29.3,8.35,42.72,42.89,81.11,130.07,68.55-.04-1.68-.11-3.71-.18-5.89-7.61.76-14.78,1.11-21.54,1.07-68.41.99-95.7-35.74-101.87-74.9Z"/><path class="cls-4" d="m2209.43,345.39c-7.98-50.75-54.14-59.69-121.54-50.06-1.82,24.14-3.62,48.83-5.39,73.84,44.78,57.84,82.34,120.17,112.28,185.85,11.18-94.52,19.74-177.27,14.65-209.63Z"/><path class="cls-4" d="m2445.29,1093.59c35.49-5.58,66.54-23.97,93.65-50.16,79.58-83.05,123.62-233.28,144.87-315.52-2.4-15.24-19.77-21.77-31.9-21.97-45.5,138.62-95.39,237.23-133.44,272.01-11.27,12.16-21.66,19.3-30.77,20.73-43.09,6.78-100.04-104.81-112.1-143.5.9-3.05,4.35-6.85,9.63-11.43,10.61-13.43,51.09-37.02,87.11-71.91,33.79-34.9,61.34-80.24,52.39-137.07-10.26-65.23-59.9-84.87-100.67-78.45-34.61,5.45-67.24,25.3-97.11,54.3-28.01,28.99-53.42,65.92-75.58,106.25,6.37,25.54,11.62,51.42,15.86,77.56,23.04-43.95,47.61-80.77,70.15-101.91,14.06-14.93,27.5-24.32,39.49-26.21,12.81-2.01,23.78,7.01,26.35,23.31,5.46,34.67-22.75,71.95-55.1,103.41-25.32,25.9-54.64,48.43-72.89,63.31,2.03,21.25,3.34,42.65,3.95,64.17,29.77,69.17,97.95,183.82,166.12,173.1Z"/><path class="cls-4" d="m2175.98,906.79l-4.71-1.91c-.85,3.05-1.68,6.09-2.48,9.1l-6.37-2.58c-2.94-64.77,12.23-189.25,26.36-306.38-27.89-69.74-64.39-135.97-108.96-197.41-9.14,133.93-17.09,274.39-21.58,391.98.09,0,.19,0,.28-.01.61-1.98,1.22-3.95,1.8-5.89,11.09-5.33,33.1,5.54,37.81,20.32-7.38,26.5-20.93,70.84-39.06,119.76.09,4.76.18,9.52.18,14.3,0,25.68-1.36,51.06-3.97,76.06.67,16.24,1.71,29.23,3.16,38.43,6.05,38.46,32.51,74.56,98.27,74.9,6.77-.1,13.93-.55,21.52-1.43,0,.12,0,.23.01.35,1.2-.12,2.36-.21,3.58-.35-.73-20.92-2.87-61.78-2.64-87.6,9.41-63.41,36.06-143.84,68.36-213.98-3.41-27.97-8.13-55.63-14.03-82.96-24.82,51.32-44.44,105.85-57.55,155.31Z"/><path d="m2178.24,1136.02c-7.6.87-14.75,1.33-21.52,1.43,6.76.03,13.93-.31,21.54-1.07,0-.12,0-.23-.01-.35Z"/><path class="cls-4" d="m2090.95,821.19c-6.42,23.04-17.5,59.59-32.21,100.89.14,3.89.26,7.77.33,11.67,18.13-48.92,31.68-93.26,39.06-119.76-4.71-14.78-26.71-25.64-37.81-20.32-.59,1.94-1.19,3.91-1.8,5.89,11.69-.8,28.39,8.96,32.42,21.61Z"/><path class="cls-4" d="m2055.56,809c.9-2.81,1.8-5.63,2.65-8.37.01-.34.02-.68.04-1.03-.81.07-1.58.21-2.33.37-.12,3.03-.24,6.03-.35,9.03Z"/><path class="cls-4" d="m2055.56,809c.12-3,.23-6,.35-9.03-.98.22-1.91.5-2.77.91-.69,2.28-1.4,4.6-2.13,6.94-.22,5.75-.43,11.43-.63,17.06,1.81-5.4,3.51-10.67,5.17-15.88Z"/><path class="cls-4" d="m2050.34,834.3c2.2,13.92,4,27.97,5.39,42.13.63-23.88,1.46-49.23,2.47-75.81-.85,2.74-1.75,5.56-2.65,8.37-.32,8.17-.62,16.27-.91,24.24-1.55.14-2.98.51-4.3,1.06Z"/><path class="cls-4" d="m2050.11,832.87c.08.48.16.95.24,1.43,1.32-.55,2.76-.92,4.3-1.06.29-7.98.59-16.08.91-24.24-1.66,5.2-3.36,10.47-5.17,15.88-.1,2.7-.18,5.33-.28,8Z"/><path d="m2058.53,799.58c-.09,0-.19,0-.28.01-.01.35-.03.68-.04,1.03.11-.35.22-.69.32-1.04Z"/><path class="cls-4" d="m2055.73,876.43c1.48,15.09,2.47,30.32,3.01,45.66,14.7-41.31,25.79-77.85,32.21-100.89-4.03-12.66-20.74-22.41-32.42-21.61-.11.35-.22.69-.32,1.04-1.01,26.58-1.84,51.93-2.47,75.81Z"/><path class="cls-3" d="m786.36,1389.73c-7.15,4.99-14.22,9.06-21.18,12.12,45.36,61.58,100.98,115.61,164.41,159.8l12.71-20.36c-60.02-42.06-112.75-93.28-155.94-151.56Z"/><path class="cls-3" d="m1331.54,245.51c299.44,0,555.68,188.33,656.62,452.74l5.22-52.58c-115.02-250.74-368.41-425.32-661.84-425.32-217.16,0-412.38,95.65-545.83,246.99l42.16-8.54c127.74-131.46,306.31-213.29,503.66-213.29Z"/><path class="cls-4" d="m2047.23,955.4c0-.71,0-1.38.01-2.09-4.55,11.94-9.36,24.09-14.41,36.25-.22,3.82-.44,7.64-.73,11.44,3.94-9.05,7.76-18.14,11.44-27.21,0-2.95.01-5.95.02-8.99,1.25-3.15,2.44-6.27,3.66-9.4Z"/><path class="cls-4" d="m742.52,565.57c-.06-.42-.1-.86-.17-1.28-1.97-12.49-5.84-21.31-11.01-27.24-36.18,52.66-65.6,110.29-87.03,171.65,11.57-3.51,22.02-7.76,31.43-12.62,17.74-46.02,40.19-89.72,66.77-130.51Z"/><path class="cls-2" d="m629.15,960.96c-.05-2.64-.08-5.28-.1-7.92-8.92,18-16.4,37-22.6,56.55.37,4.44.74,8.87,1.2,13.29,5.69-21.26,12.79-42.09,21.5-61.92Z"/><path class="cls-2" d="m759.02,1354.82c-7.79,4.86-15.47,8.57-22.99,11,.8,1.14,1.58,2.3,2.39,3.44,7.14-3.25,14.41-7.57,21.74-12.87-.38-.53-.77-1.04-1.15-1.57Z"/><path class="cls-4" d="m734.54,1363.67c7.75-1.93,15.69-5.26,23.76-9.87-78.22-110.18-125.5-243.78-129.09-388.03-8.51,20.69-15.35,42.34-20.73,64.36,13.87,123.01,58.52,236.82,126.06,333.54Z"/><path class="cls-2" d="m967.4,1548.69c-1.62-.99-3.22-2.02-4.83-3.02-2.71,8.95-3.73,18.24-3.62,27.25,2.64,1.58,5.29,3.16,7.95,4.71-1.09-9.24-1.14-19.14.5-28.93Z"/><path class="cls-2" d="m1168.46,1631.46c-10.89,6.66-22.66,12.3-35.43,16.79,2.15.61,4.33,1.17,6.49,1.76,11.38-5.02,21.94-11,31.69-17.87-.92-.22-1.84-.45-2.76-.68Z"/><path class="cls-4" d="m971.12,1578.6c.09.55.2,1.08.29,1.63,49.28,28.18,102.15,50.76,157.75,66.88,13.53-4.15,26-9.57,37.52-16.08-70.13-16.93-136.19-44.39-196.4-80.64-1.03,9.68-.55,19.34.84,28.21Z"/><path class="cls-4" d="m2030.74,879.41c6.12-15.87,11.84-31.62,17.02-46.79.14-3.75.28-7.52.42-11.31-.17-.98-.34-1.96-.51-2.93-5.28,16.44-11.31,33.93-17.92,51.78.34,3.08.68,6.16.98,9.25Z"/><path class="cls-4" d="m2032.84,989.56c5.05-12.16,9.86-24.31,14.41-36.25.31-34.72,1.29-74.95,2.81-118.9-.16.07-.35.11-.51.19-.69,2.42-1.4,4.87-2.13,7.35.11-3.08.23-6.21.34-9.32-5.19,15.16-10.91,30.91-17.02,46.79,2.2,22.6,3.36,45.49,3.36,68.65,0,13.93-.45,27.76-1.26,41.5Z"/><path class="cls-4" d="m2048.19,821.31c-.15,3.79-.29,7.56-.42,11.31.52-1.53,1.03-3.05,1.54-4.57-.37-2.25-.72-4.5-1.12-6.75Z"/><path class="cls-4" d="m2049.55,834.6c.16-.08.35-.12.51-.19.02-.51.04-1.02.05-1.53-.26-1.61-.53-3.21-.8-4.82-.51,1.52-1.02,3.03-1.54,4.57-.12,3.11-.23,6.24-.34,9.32.72-2.48,1.44-4.93,2.13-7.35Z"/><path class="cls-2" d="m2050.78,955.53c-1.2,3.09-2.37,6.16-3.61,9.27-1.19,2.99-2.4,5.99-3.62,8.99-.03,44.18,1.22,77.6,4.11,95.95.21,1.33.45,2.66.7,3.98,1.7-9.7,3.19-19.47,4.5-29.3-1.65-21.25-2.28-51.63-2.09-88.89Z"/><path class="cls-4" d="m2043.58,964.8c-.01,3.04-.02,6.04-.02,8.99,1.22-3,2.43-6,3.62-8.99.01-3.07.04-6.23.06-9.4-1.22,3.13-2.4,6.25-3.66,9.4Z"/><path class="cls-4" d="m2047.23,955.4c1.2-3.09,2.44-6.21,3.61-9.28-.03,3.19-.05,6.32-.06,9.41,1.22-3.14,2.47-6.29,3.66-9.41.04-4.07.08-8.22.13-12.44-2.36,6.46-4.8,13.02-7.32,19.63,0,.71,0,1.38-.01,2.09Z"/><path class="cls-4" d="m2047.23,955.4c-.02,3.17-.05,6.33-.06,9.4,1.24-3.11,2.41-6.18,3.61-9.27.02-3.09.04-6.22.06-9.41-1.17,3.07-2.41,6.19-3.61,9.28Z"/><path class="cls-4" d="m2055.29,1024.12c2.61-25,3.97-50.38,3.97-76.06,0-4.78-.09-9.54-.18-14.3-1.52,4.09-3.06,8.21-4.64,12.36-.27,30.63-.01,57.02.85,78Z"/><path class="cls-4" d="m2054.57,933.68c-.05,4.22-.1,8.37-.13,12.44,1.58-4.15,3.12-8.27,4.64-12.36-.07-3.9-.19-7.79-.33-11.67-1.36,3.83-2.75,7.69-4.17,11.59Z"/><path class="cls-4" d="m2050.05,834.41c-1.52,43.95-2.5,84.18-2.81,118.9,2.52-6.61,4.97-13.17,7.32-19.63.23-17.84.62-37.03,1.16-57.25-1.39-14.17-3.19-28.21-5.39-42.13-.09.04-.2.07-.29.11Z"/><path class="cls-4" d="m2050.34,834.3c-.08-.48-.16-.95-.24-1.43-.02.51-.04,1.02-.05,1.53.09-.04.19-.07.29-.11Z"/><path class="cls-4" d="m2058.74,922.09c-.54-15.34-1.53-30.57-3.01-45.66-.54,20.22-.93,39.4-1.16,57.25,1.43-3.9,2.81-7.76,4.17-11.59Z"/><path class="cls-4" d="m420.09,1093.87c-1.47,33.31-2.84,67.34-4.07,101.8,1.97,7.34,4.03,14.65,6.18,21.93,1.03-31.04,2.18-61.79,3.42-92.06-2.04-10.5-3.86-21.06-5.54-31.66Z"/><path class="cls-4" d="m2273.17,856.88c-2.64,2.11-4.66,4.14-6.14,6.29,2.36-2.04,5.14-4.35,8.2-6.84-.04-.38-.06-.76-.1-1.14-.67.57-1.35,1.15-1.96,1.69Z"/><path class="cls-4" d="m416.02,1195.66c1.23-34.46,2.6-68.49,4.07-101.8-7.54-47.79-11.45-96.49-11.45-145.8,0-119.73,22.71-235.96,65.98-343.84-9.06.35-18.23.64-27.47.91-41.8,107.91-63.67,223.74-63.67,342.94,0,84.79,11.11,167.86,32.54,247.6Z"/><path class="cls-2" d="m2260.86,880.95c-.95-6-.11-10.3,2.57-14.19-.34.29-.72.61-1.05.9-7.42,5.95-10.18,11.16-8.72,20.48l.73,4.66c3.41,13.31,12.29,36.42,25.12,62.62.02-2.46.09-4.91.09-7.37,0-5.1-.11-10.19-.19-15.28-8.9-19.69-15.11-36.55-17.83-47.16l-.73-4.66Z"/><path class="cls-4" d="m2233.53,751.48c5.68-11.74,11.63-23.32,17.84-34.62-.32-1.28-.67-2.54-.99-3.82-6.22,10.85-12.21,21.97-17.93,33.29.38,1.71.72,3.44,1.09,5.15Z"/><path class="cls-2" d="m2077.14,403.9c.84-12.87,1.69-25.69,2.54-38.4-2.02-2.58-4.1-5.12-6.15-7.68-.85,12.51-1.7,25.1-2.54,37.78,2.07,2.76,4.11,5.52,6.15,8.3Z"/><path class="cls-4" d="m2247.56,834.44c6.36-13.82,12.95-27.21,19.67-40.02-4.23-26.14-9.49-52.02-15.86-77.56-6.21,11.31-12.16,22.88-17.84,34.62,5.9,27.32,10.62,54.99,14.03,82.96Z"/><path class="cls-4" d="m2188.79,605.02c2.04-16.88,4.06-33.61,5.99-49.99-29.94-65.68-67.51-128.01-112.28-185.85-.9,12.74-1.79,25.55-2.67,38.43,44.57,61.43,81.07,127.67,108.96,197.41Z"/><path class="cls-4" d="m2267.02,863.17c-2.68,3.89-3.52,8.19-2.57,14.19l.73,4.66c2.31,9.02,7.14,22.54,13.99,38.48-.61-21.52-1.92-42.92-3.95-64.17-3.06,2.49-5.84,4.8-8.2,6.84Z"/><path class="cls-1" d="m1244.03,627.4c13.78,19.32,33.7,24.53,54.67,21.24,9.32-1.47,17.29-3.92,23.91-7.34,2.81-1.3,5.82-4.19,8.94-8.23,23.43-15.57,58.92-128.28,50.74-143.29-13.97-20.48-41.54-36.43-78.82-30.57-13.83,2.17-25.87,9.95-35.73,21.17-27.32,23.92-41.35,72.85-35.03,113,2.01,12.81,5.01,24.27,11.32,34.03Z"/><path class="cls-1" d="m1568.11,1241.9c22.6-3.56,47.03-19.63,71.54-45.04-22.08,21.24-43.96,34.64-64.35,37.85-64.06,10.07-122.2-55.98-130.63-109.55-16.19-102.92-4.05-285.23,90.59-384.12-101.21,97-114.38,285.84-97.78,391.31,8.43,53.58,66.57,119.63,130.63,109.55Z"/><path class="cls-4" d="m612.21,715.99c11.57-1.82,22.24-4.29,32.11-7.29,21.43-61.36,50.85-118.99,87.03-171.65-7.19-8.25-16.92-10.86-27.71-9.64-3.22,8.16-8.96,16.27-17.58,23.86-16.45,18.83-48.68,35.52-101.21,43.78-32.99,5.19-70.63,7.66-110.24,9.17-43.27,107.88-65.98,224.11-65.98,343.84,0,49.31,3.91,98.01,11.45,145.8,6.37-144.48,14.62-275.42,21.69-368.88,2.21.14,4.42.26,6.62.39.19-2.53.38-5.1.57-7.58,60.25,3.65,117.81,5.34,163.24-1.81Z"/><path class="cls-4" d="m1244.03,627.4c13.78,19.32,33.7,24.53,54.67,21.24,9.32-1.47,17.29-3.92,23.91-7.34,2.81-1.3,5.82-4.19,8.94-8.23,23.43-15.57,58.92-128.28,50.74-143.29-13.97-20.48-41.54-36.43-78.82-30.57-13.83,2.17-25.87,9.95-35.73,21.17-27.32,23.92-41.35,72.85-35.03,113,2.01,12.81,5.01,24.27,11.32,34.03Z"/><path class="cls-2" d="m1568.11,1241.9c22.6-3.56,47.03-19.63,71.54-45.04-22.08,21.24-43.96,34.64-64.35,37.85-64.06,10.07-122.2-55.98-130.63-109.55-16.19-102.92-4.05-285.23,90.59-384.12-101.21,97-114.38,285.84-97.78,391.31,8.43,53.58,66.57,119.63,130.63,109.55Z"/><path class="cls-3" d="m629.98,911.34c3.24-62.22,14.61-122.32,33.06-179.26l-28.36,6.32c-19.9,65.98-30.69,135.86-30.83,208.22l26.13-35.27Z"/><path class="cls-3" d="m1331.54,1650.62c-31.63,0-62.76-2.14-93.29-6.21l-24.98,21.7c38.51,6.32,78.01,9.66,118.28,9.66,130.92,0,253.86-34.78,360.11-95.54h-53.82c-92.62,45.07-196.55,70.38-306.29,70.38Z"/><path class="cls-3" d="m2020.04,1183.82l-30.44,10.29c-17.59,46.89-40.08,91.41-66.8,132.95h29.71c27.44-44.8,50.2-92.77,67.53-143.24Z"/><path class="cls-3" d="m1984.14,1600.65c-174.31,174.31-406.07,270.31-652.59,270.31s-478.28-96-652.59-270.31c-83.1-83.1-148.36-179.29-193.94-283.88v59.14c44.85,88.52,103.95,170.33,176.16,242.53,179.07,179.07,417.14,277.68,670.38,277.68s491.31-98.62,670.38-277.68c12.45-12.45,24.46-25.21,36.12-38.21h-34.16c-6.48,6.88-13.04,13.71-19.76,20.42Z"/><path class="cls-3" d="m2273.04,1059.43l-31.3,42.24c-13.03,78.19-36,153.81-68.24,225.39h27.51c36.88-84.61,61.21-174.6,72.03-267.63Z"/><path class="cls-4" d="m1547.29,1427.38h-18.55v50.88h18.55c7.75,0,14.04-2.34,18.88-7.04,4.82-4.69,7.24-10.87,7.24-18.54,0-8.12-2.35-14.37-7.04-18.74-4.69-4.38-11.05-6.56-19.08-6.56Z"/><path class="cls-4" d="m2699.72,1358.86h-1265.91c-51.89,0-93.96,42.07-93.96,93.96s42.07,93.96,93.96,93.96h1265.91c51.89,0,93.96-42.07,93.96-93.96s-42.07-93.96-93.96-93.96Zm-1117.45,126.99c-9.06,8.66-20.73,12.99-34.98,12.99h-40.74v-91.89l40.74-.14c14.88-.09,26.7,4.15,35.45,12.72,8.76,8.57,13.13,19.63,13.13,33.16s-4.54,24.49-13.6,33.16Zm227.02-34.24c0,14.98-4.2,26.86-12.59,35.66-8.39,8.79-19.18,13.19-32.35,13.19s-23.77-4.38-31.8-13.13c-8.03-8.75-12.05-20.66-12.05-35.73v-44.8h22.19v44.8c0,8.93,1.87,15.88,5.62,20.84,3.75,4.96,9.09,7.44,16.04,7.44s12.43-2.5,16.44-7.51c4.02-5.01,6.02-11.93,6.02-20.77v-44.8h22.47v44.8Zm200.16,47.23h-70.51v-92.03h22.19v71.46h48.32v20.57Zm142.84-45.32c.3,6.9,2.86,12.91,7.73,17.98,2.53,2.64,5.38,4.62,8.53,5.97,3.33,1.42,6.99,2.15,11.02,2.15,5.5,0,10.33-1.26,14.48-3.79,4.15-2.52,7.4-5.91,9.75-10.15l18.81,10.83c-4.33,7.22-10.24,13.01-17.73,17.39-7.49,4.38-15.92,6.56-25.31,6.56-8.74,0-16.56-1.74-23.49-5.18-4.43-2.2-8.5-5.08-12.18-8.69-3.08-3.02-5.6-6.3-7.67-9.8-4.28-7.21-6.47-15.41-6.47-24.65,0-12.99,4.74-24.06,14.22-33.22,9.47-9.16,21.33-13.74,35.59-13.74,1.01,0,1.95.12,2.94.16,8.37.39,15.97,2.32,22.71,6,1.25.68,2.4,1.47,3.56,2.24,5.82,3.84,10.56,8.66,14.11,14.6l-18.82,10.96c-1.53-2.94-3.55-5.43-5.98-7.52-1.14-.98-2.35-1.9-3.69-2.7-4.2-2.48-9.14-3.72-14.82-3.72-3.67,0-7.03.58-10.1,1.67-3.57,1.28-6.75,3.27-9.52,6.04-5.14,5.14-7.72,11.55-7.72,19.22,0,.47.04.92.06,1.37Zm269.39-26.14h-48.32v15.83h40.33v19.22h-40.33v15.83h48.32v20.57h-70.51v-92.03h70.51v20.57Zm195.02,65.3c-6.86,5.19-15.75,7.78-26.66,7.78-6.86,0-13.02-1.08-18.47-3.25-5.46-2.16-9.75-4.96-12.86-8.39-3.11-3.42-5.47-7.04-7.11-10.83-1.62-3.79-2.43-7.58-2.43-11.37h22.06c.09.36.2.88.34,1.56.13.67.63,1.85,1.49,3.52.86,1.67,1.94,3.15,3.25,4.47,1.3,1.31,3.27,2.48,5.88,3.51,2.62,1.04,5.64,1.56,9.07,1.56,4.59,0,8-.79,10.21-2.37,2.21-1.57,3.32-3.5,3.32-5.75,0-2.62-1.36-4.6-4.05-5.96-2.71-1.35-6.77-2.66-12.18-3.92-2.62-.63-4.28-1.04-5.01-1.22-.73-.18-2.46-.63-5.21-1.35-2.75-.72-4.69-1.33-5.82-1.83-1.13-.5-2.92-1.24-5.35-2.24-2.43-.99-4.24-1.94-5.41-2.84-1.18-.9-2.62-2.08-4.33-3.52-1.72-1.44-2.98-2.91-3.8-4.4-.8-1.49-1.53-3.22-2.16-5.21-.64-1.98-.95-4.06-.95-6.22,0-8.3,3.6-15.25,10.83-20.84,7.21-5.59,16.1-8.39,26.66-8.39,11.28,0,20.21,3.16,26.8,9.48,6.59,6.32,9.88,13.4,9.88,21.25h-22.06c0-2.62-1.38-5.07-4.13-7.37-2.75-2.3-6.34-3.45-10.76-3.45-3.7,0-7.08.77-10.15,2.3-3.06,1.54-4.59,3.52-4.59,5.95,0,2.08,1.32,3.72,3.99,4.94,2.67,1.22,7.69,2.78,15.09,4.67,3.16.82,5.37,1.4,6.63,1.76,1.27.36,3.44,1.06,6.5,2.1,3.07,1.04,5.35,1.96,6.84,2.77,1.49.82,3.36,2.01,5.62,3.59,2.25,1.58,3.94,3.18,5.07,4.8,1.13,1.62,2.12,3.66,2.98,6.09.86,2.43,1.29,5.05,1.29,7.85,0,8.66-3.44,15.59-10.29,20.78Z"/><path class="cls-4" d="m638.65,217.31c-.67,9.28-1.33,15.25,7.29,20.55,9.28,5.97,5.97,3.31,13.26,11.27,7.96,8.62,20.55,12.6,31.82,13.26,9.28.66,49.72,1.33,53.04-3.31,4.64-7.29,25.19-37.13,27.18-43.76.66-1.33-13.92,9.94-17.24,12.6-11.49,7.66-27.89,17.77-42.11,19.11-1.17.21-1.75.22-1.64.12.54-.02,1.09-.07,1.64-.12,6.35-1.15,30.25-8.26,59.35-35.68,7.96-6.63-7.95-11.27-6.63-7.96h0c2.65,10.61-12.6,19.23-20.55,23.21-14.59,9.28-37.13,18.56-37.79,20.55-.67,1.99,1.99,3.31,3.98,3.31,3.98.66,25.86-3.31,25.2,0-1.33,1.99-22.54,2.65-25.2,2.65-21.22-1.33-57.02-17.24-69.61-35.8q-1.33-1.32-1.99,0Z"/><path class="cls-4" d="m661.85,198.74c-.66,0-1.32,0-3.31-.66h-7.29c-3.31.66-5.97,1.33-7.96,2.65-1.99,1.33-3.31,3.31-3.31,5.3-.66,3.31,0,7.29,2.65,11.27,5.97,7.96,20.55,16.58,29.17,20.55,3.98,2.65,28.51,13.26,32.49,12.6,0,0-.66-3.31,0-3.98.67-4.64,20.55-12.6,25.2-14.59h0c7.95-4.65,13.26-4.65,13.26-11.28,1.33-7.29,9.28-11.27,9.94-19.89,0-4.64-5.97-9.28-10.61-11.93-4.64-1.99-9.94-3.31-8.62-2.65,5.97,7.29,5.97,15.25,5.97,17.24,5.3,31.82-29.17,23.21-40.44,25.2-6.63,0-27.85-2.65-29.17-1.32,0,0,29.17,18.57,25.86,16.58-9.95-5.97-19.23-9.94-28.51-15.91-5.97-3.31-17.24-11.27-19.23-17.9v-1.99c1.99,2.65,13.26,18.56,15.91,15.91.66,0-2.65-6.63-3.31-13.26-.67-4.64,1.32-8.62,1.32-10.61v-1.32Z"/><path class="cls-4" d="m689.03,175.54c-.66,1.33,21.22,11.27,19.89,11.27-1.99,1.33-16.57-9.28-27.18-6.63-3.31,1.32-7.29,2.65-9.94,5.97-3.98,3.31-7.29,8.62-7.29,14.59,0,6.63,2.65,13.92,3.31,18.56h0c1.99,3.97,1.99,5.96,3.98,5.96s5.97-1.33,7.96-1.99c13.26-1.32,35.8,6.63,50.39-1.32,1.32,0,4.64-2.65,5.97-6.63,1.99-4.64.66-11.93-1.99-14.59-5.3-5.3-14.59-8.62-23.21-7.96-9.28.66-17.24,3.98-15.91,5.3.67.67,5.97,1.33,10.61,1.99,5.3,1.32,10.61,3.98,13.26,5.97,2.65,1.32,2.65,3.98,2.65,3.98-5.3-9.28-26.52-10.61-25.2-9.94,5.97,1.99,25.2,7.29,26.52,15.25.66,2.65-7.29,5.3-9.28,5.3-4.64,1.33-10.61.66-15.25-.66-5.97-1.32-11.93-2.65-17.24-3.31h-2.65c-.66,1.33-1.33,2.65-2.65,2.65s-3.31-1.33-3.98-2.65c-1.32-1.99-1.32-3.98-1.32-5.97.66-5.97,4.64-7.29,7.29-11.93,1.32-1.33.66-3.98,3.31-5.3,3.31-1.32,9.94,2.65,13.26,1.99,11.27-3.31,14.59-5.97,28.51-2.65,6.63,1.99,13.26,5.97,13.26,5.97,0-5.3-10.61-20.55-6.63-18.56,1.99.67,3.98,3.98,9.94,4.64,7.29.66,17.9,11.93,14.59,21.22-3.31,8.62-7.95,8.62-9.94,19.23q0,1.32,1.32,0c3.31-3.98,10.61-11.93,12.6-15.91,2.65-4.64,3.31-15.91,3.31-21.22,0-10.61-1.32-16.58-12.6-20.55-11.93-3.31-49.72-1.32-59.67,7.96Z"/><path class="cls-4" d="m660.52,196.09c3.31-.66,2.65-4.64,5.3-7.29,12.6-13.26,19.89-11.27,20.55-12.6-.66-5.3,20.55-9.95,25.86-10.61,12.6-2.65,25.86-2.65,39.12,1.32,1.32.66,1.99.66,0-.66-15.25-13.26-19.23-26.52-41.77-16.58-3.98,1.99-5.97,3.98-6.63,4.64,0,.66,1.99,1.99,4.64,3.31.66,0,15.91,5.3,9.28,3.31-29.17-7.96-48.4-13.92-66.96,17.24h0c-1.32,1.33-11.93,20.55-11.93,20.55,9.95-3.98,20.55-2.65,22.54-2.65Z"/><path class="cls-4" d="m696.33,214c-1.33,0-7.96-1.33-7.96.66.66.66,18.56,4.64,21.22,3.98,4.64,0,10.61-3.98,5.97-7.96-2.65-3.31-15.25-5.97-19.89-7.29-4.64-2.65-10.61-3.98-15.25-2.65-1.33.67-1.99,1.33-2.65,1.99-2.65,1.99-4.64,4.64-4.64,7.96,0,5.97,1.99,5.3,5.3,3.31h0c.66.66,2.65,0,3.31-.66h3.98c0-.66-.66-1.32-1.32-1.32-1.32-1.32-3.98,0-6.63,0-1.99,0,0-2.65,0-2.65l.66,1.32c.66.66,3.31-5.97,3.98-5.3.67,1.32.67,3.98,1.99,3.98,1.33-.66,3.32-1.99,4.64-2.65,3.31-.67,5.97,2.65,7.96,3.98,1.99,1.99,14.59,1.99,14.59,1.99-1.32,3.98-13.26,1.99-15.25,1.32Z"/><path class="cls-4" d="m745.39,276.32l-4.64-.66c-39.78,7.29-44.42,7.96-82.87-4.64,33.81,17.24,41.11,11.93,66.96,22.54,28.51,10.61,37.79-8.62,60.33-29.83l5.97-8.62h0c-1.99-1.32-15.25,24.53-45.75,21.22Z"/><path class="cls-4" d="m766.61,197.42c-1.33,1.99,2.65,2.65,3.98,3.31,7.95,3.32,5.3,9.95,1.32,16.58-1.99,4.64-27.18,44.42-21.88,42.43,21.22-5.97,43.76-39.78,41.77-64.31-1.33-13.26-13.26-31.16-29.17-23.21h0c-1.33.66,7.29,13.92,3.98,25.19Z"/><path class="cls-4" d="m791.8,221.95h0s-25.86,33.81-25.86,33.81c-12.59,16.58-86.19,9.94-106.08,5.97-29.83-7.29-7.96,9.95,30.5,16.58,14.59,1.99,33.15-1.99,49.73-4.64,37.13,3.98,45.09-23.87,52.38-19.89,2.65,1.32,13.92-7.29-.66-31.82Z"/><path class="cls-4" d="m793.79,219.96h0c11.93,21.88,7.96,32.49-.66,38.45-4.64,2.65-10.61,11.27-15.91,17.24-27.18,29.17-71.6,55.69-68.95,62.98,0,1.99,1.99,2.65,4.64,3.31,23.21,3.31,22.54-14.59,37.13-18.56l19.89-11.27c62.99-36.46,47.74-40.44,51.72-55.69,15.25-61.66-27.84-37.13-27.84-36.46Z"/><path class="cls-4" d="m752.01,296.87c-5.96,1.32-11.26,3.31-21.2.66-8.62-1.99-16.58-5.97-25.2-7.29-9.28-2.65-17.9-4.64-27.18-7.96-19.89-7.29-46.41-21.88-43.1-31.82,2.65-7.29-18.56-15.25-20.55-29.17l-25.2,15.25c-1.32,3.98,11.93,35.14,35.14,39.12,35.8,5.97,48.4,19.23,75.58,20.55-27.84.66-57.02-16.58-65.64-14.59-3.98.66-4.64,15.25,9.28,30.5,12.6,13.92,49.73,27.84,60.33,21.88l27.84-22.54,19.88-14.58Z"/><path class="cls-4" d="m637.99,247.14c0,1.32,1.32,12.6,3.98,11.27,8.62-3.31,24.53,1.99,27.18,1.99,1.99,0-9.94-7.29-11.27-7.96h0c-2.65-2.65-3.31-5.97-6.63-8.62-1.99-1.32-5.3-3.31-7.29-3.98-13.92-12.6-3.31-22.54-5.97-29.83-4.64-13.26.66-22.54,9.28-31.82q.66-1.32-1.99,0c-7.96,3.31-27.84,11.27-29.83,21.22-1.32,7.29,1.32,22.54,6.63,29.17,3.98,5.97,13.26,12.6,15.91,18.56Z"/><path class="cls-4" d="m752.02,296.86h-.01s.01,0,.02,0h0Z"/><path class="cls-4" d="m711.89,247.03c-.55.05-1.1.09-1.64.12-.1.1.47.09,1.64-.12Z"/><path class="cls-4" d="m469.12,416.12c5.03,7.83,8.07,13.01,18.15,12.09,11.01-.78,6.76-.92,17.37,1.09,11.53,2.14,24-2.22,33.43-8.44,7.83-5.03,40.62-28.71,40.49-34.42-.65-8.62-2.06-44.82-4.43-51.32-.26-1.46-5.2,16.3-6.26,20.41-4.61,13.01-11.7,30.94-22.29,40.52-.81.87-1.27,1.22-1.25,1.08.42-.35.84-.71,1.25-1.08,4.4-4.73,19.28-24.73,26.17-64.12,2.4-10.08-13.12-4.26-10.07-2.4h0c8.48,6.91,1.43,22.94-2.56,30.89-6.12,16.17-18.62,37.1-17.96,39.09.66,1.99,3.58,1.46,5.17.27,3.58-1.85,18.72-18.14,20.18-15.09.13,2.39-16.47,15.62-18.59,17.21-17.79,11.64-55.99,20.34-77.19,13.01q-1.86-.27-1.59,1.19Z"/><path class="cls-4" d="m476.58,387.36c-.53.4-1.06.79-3.05,1.45l-5.84,4.37c-2.26,2.52-3.98,4.64-4.78,6.89-.8,2.25-.67,4.64.52,6.23,1.45,3.05,4.37,5.84,8.87,7.44,9.54,2.8,26.39.97,35.67-1.01,4.77-.26,30.77-6.45,33.56-9.37,0,0-2.52-2.26-2.38-3.19-2.25-4.12,8.92-22.4,11.44-26.77h0c3.59-8.49,7.84-11.66,3.87-16.97-3.31-6.64.68-14.59-3.95-21.88-2.78-3.72-10.34-3.86-15.64-3.2-4.91,1.19-9.95,3.3-8.49,3.04,9.15,2.27,13.91,8.64,15.1,10.23,23.31,22.31-9.47,36.05-17.3,44.4-5.31,3.97-23.89,14.55-24.16,16.41,0,0,34.48-2.6,30.64-2.21-11.54,1.18-21.35,3.55-32.36,4.33-6.77.92-20.56,1.3-26.12-2.82l-1.19-1.59c3.18.93,21.74,6.93,22.27,3.21.53-.4-6.09-3.72-10.59-8.63-3.31-3.32-4.1-7.7-5.29-9.29l-.79-1.06Z"/><path class="cls-4" d="m484.45,352.5c.26,1.46,23.74-3.68,22.68-2.88-.8,2.25-18.83,2.49-25.74,10.97-1.86,3.05-4.25,6.49-4.39,10.73-1.2,5.04-.68,11.27,2.89,16.05,3.97,5.31,10.46,9.56,13.77,12.88h0c3.97,1.99,5.16,3.58,6.76,2.39,1.59-1.19,3.98-4.64,5.18-6.36,9.83-9,32.64-16.13,39.56-31.23,1.06-.79,2.13-4.9.81-8.88-1.19-4.91-6.62-9.95-10.33-10.49-7.42-1.07-16.84,1.83-23.35,7.52-7.04,6.09-11.42,13.51-9.57,13.78.93.13,5.57-2.51,9.69-4.76,5.04-2.11,10.88-3.17,14.19-3.16,2.92-.53,4.51,1.6,4.51,1.6-9.81-4.26-27.59,7.39-26.13,7.12,5.97-1.98,24.54-9.25,30.37-3.67,2.12,1.73-2.66,8.61-4.26,9.81-2.92,3.84-8.1,6.88-12.61,8.6-5.57,2.51-11.15,5.02-15.79,7.67l-2.12,1.59c.26,1.46.53,2.92-.54,3.71-1.06.79-3.45.92-4.77.26-2.25-.8-3.44-2.39-4.63-3.99-3.04-5.18-.65-8.62-1.31-13.92.27-1.86-1.85-3.58-.52-6.23,1.86-3.05,9.55-3.83,11.81-6.35,7.04-9.4,8.11-13.51,21.24-19.2,6.5-2.38,14.19-3.16,14.19-3.16-3.18-4.25-20.8-10.11-16.43-10.9,1.99-.66,5.57.81,10.74-2.24,6.24-3.84,21.48-1.16,24.39,8.26,2.51,8.89-1.21,11.67,3.55,21.35q.79,1.06,1.06-.79c.27-5.17,1.35-15.91.56-20.29-.65-5.3-6.87-14.73-10.05-18.98-6.35-8.5-10.99-12.48-22.4-8.92-11.54,4.49-40.62,28.72-43.02,42.1Z"/><path class="cls-4" d="m473.93,386.03c2.26-2.52-.65-5.3-.12-9.02,2.15-18.16,9.18-20.94,8.92-22.4-3.71-3.85,10.5-20.27,14.36-23.98,8.5-9.67,19.12-17.61,32.12-22.36,1.46-.26,1.99-.66-.4-.53-20.15-1.49-31.28-9.73-43.38,11.74-1.99,3.98-2.4,6.76-2.53,7.69.4.53,2.79.4,5.7-.13.53-.4,15.92-5.28,9.42-2.9-28.13,11.1-47.1,17.83-43.31,53.91h0c-.27,1.86,2.75,23.61,2.75,23.61,5.58-9.14,14.87-14.43,16.47-15.62Z"/><path class="cls-4" d="m513.33,378.92c-1.06.79-7.17,3.7-5.98,5.3.93.13,17.64-7.4,19.37-9.52,3.72-2.78,6.11-9.54.01-9.95-4.11-1.07-15.79,4.35-20.3,6.07-5.3.65-10.88,3.17-13.8,7.01-.66,1.33-.8,2.25-.93,3.18-.93,3.18-.94,6.5,1.05,9.15,3.57,4.78,4.77,3.06,6.23-.52h0c.93.14,2.12-1.59,2.26-2.51l3.19-2.38c-.4-.53-1.32-.66-1.85-.27-1.85-.27-3.19,2.38-5.31,3.97-1.59,1.19-1.59-2.12-1.59-2.12l1.32.66c.93.13-.92-6.76,0-6.63,1.33.66,2.91,2.79,3.98,1.99.67-1.33,1.47-3.58,2.13-4.9,2.26-2.52,6.37-1.45,8.75-1.58,2.79.4,12.87-7.14,12.87-7.14,1.32,3.98-9.43,9.53-11.42,10.19Z"/><path class="cls-4" d="m589.94,399.46l-4.11,2.25c-27.49,29.66-30.81,32.97-69.15,45.91,37.4-6.44,40.07-15.06,67.13-22.04,29.19-8.58,25.11-29.53,30.45-60.02l-.38-10.48h0c-2.39.13,2.48,28.77-23.93,44.38Z"/><path class="cls-4" d="m559.68,323.56c.13,2.39,3.71.54,5.17.27,8.36-2.11,10.2,4.79,10.99,12.48,1.19,4.91,4.83,51.85,7.89,47.08,13.42-17.48,11.22-58.06-5.06-76.52-9-9.83-29.28-17.02-37.26-1.12h0c-.66,1.33,14.18,6.78,18.27,17.8Z"/><path class="cls-4" d="m594.55,328.12h0s-.46,42.57-.46,42.57c-.16,20.82-63.07,59.58-81.38,68.3-28.26,12.03-.42,12.73,34.35-4.99,12.87-7.14,25.36-21.44,37.04-33.49,32.12-19.05,21.82-46.11,30.04-47.29,2.92-.53,6.78-14.18-19.59-25.09Z"/><path class="cls-4" d="m594.95,325.34h0c22.66,10.38,25.83,21.26,22.5,31.2-2.13,4.9-1.74,15.38-2.42,23.33-4.3,39.64-24,87.48-17.5,91.73,1.19,1.59,3.18.93,5.7-.13,20.57-11.24,9.32-25.18,18.62-37.1l9.18-20.94c28.61-66.92,14.01-60.98,8.07-75.57-24.71-58.51-44.53-13.06-44.14-12.53Z"/><path class="cls-4" d="m607.54,411.96c-3.98,4.63-7.04,9.4-16.58,13.22-8.09,3.57-16.85,5.15-24.54,9.25-9.02,3.43-17.12,7-26.53,9.91-20.3,6.07-50.27,10.27-53.57.32-2.24-7.43-24-1.1-33.93-11.06l-11.05,27.3c1.32,3.98,30.6,21,51.57,10.29,32.25-16.66,50.28-13.58,72.84-28.8-21.9,17.2-55.59,20.87-61.3,27.62-2.79,2.91,5.41,14.99,25.7,18.87,18.43,3.61,56.5-7.48,61.42-18.61l8.8-34.73,7.19-23.58Z"/><path class="cls-4" d="m486.45,440.41c.79,1.06,8.6,9.29,9.93,6.65,4.92-7.82,20.84-13.1,22.96-14.68,1.59-1.19-12.33.12-13.79.38h0c-3.71-.54-6.23-2.8-10.47-2.94-2.39.13-6.23.52-8.22,1.18-18.69-1.75-16.15-16.07-22.64-20.32-11.66-7.84-12.97-18.45-11.62-31.05q-.26-1.46-1.59,1.19c-4.39,7.42-15.55,25.7-11.19,34.86,3.31,6.63,14.56,17.26,22.78,19.39,6.76,2.4,18.16,2.15,23.86,5.34Z"/><path class="cls-4" d="m607.55,411.94v.02s0,0,0-.01h0Z"/><path class="cls-4" d="m545.57,396.06c-.41.37-.82.73-1.25,1.08-.02.14.43-.21,1.25-1.08Z"/><path class="cls-3" d="m2001.28,296.79C1817.67,105.4,1573.55,0,1313.89,0c-184.93,0-361.96,53.51-514.88,153.42l16.92,20.73c148.12-95.9,319.24-147.26,497.96-147.26,252.77,0,490.41,102.6,669.15,288.91,14.13,14.73,27.7,29.88,40.81,45.36l3.44-36.1c-8.5-9.55-17.13-19-26.01-28.27Z"/><path class="cls-3" d="m441.33,565.57l32.25-6.81c10.24-20.51,21.21-40.64,32.86-60.4l-27.53-4.64c-13.48,23.45-26.01,47.42-37.58,71.85Z"/></svg>